<?xml version="1.0" encoding="utf-8"?>
<!-- Generator: Adobe Illustrator 25.4.1, SVG Export Plug-In . SVG Version: 6.00 Build 0)  -->
<svg version="1.1" id="Layer_1" xmlns="http://www.w3.org/2000/svg" xmlns:xlink="http://www.w3.org/1999/xlink" x="0px" y="0px"
	 viewBox="0 0 82 82" style="enable-background:new 0 0 82 82;" xml:space="preserve">
<style type="text/css">
	.st0{fill:#FFFFFF;}
	.st1{fill:#EFB14D;}
	.st2{fill:#E4E7ED;}
	.st3{fill:#BA642A;}
</style>
<rect class="st0" width="82" height="82"/>
<g>
	<g id="icons">
		<path class="st1" d="M58.8,58.4c-5-16.9-7.9-22.4-12-22.4c-1.3-0.1-2.6,0.4-3.7,1.2c-1.2,1-3,1-4.2,0c-1.1-0.8-2.4-1.2-3.7-1.2
			c-4.1,0-7,5.4-12,22.4c-2.8,9.6-2.9,15-0.3,18.5S31.1,82,41,82s15.5-1.6,18.1-5.2S61.6,68,58.8,58.4z"/>
		<path class="st2" d="M77,46c0,9.1-6.4,17-16.2,21.7c-0.4-3.2-1.1-6.3-2.1-9.3c-5-16.9-7.9-22.4-12-22.4c-1.3-0.1-2.6,0.4-3.7,1.2
			c-1.2,1-2.9,1-4.1,0c-1.1-0.8-2.4-1.2-3.7-1.2c-4.1,0-7,5.4-12,22.4c-1,3-1.6,6.2-2.1,9.3C11.4,63,5,55.1,5,46
			c0-6.4,3.2-12.3,8.6-16.8c0.9-0.8,1.4-1.9,1.4-3.2l0,0C15,11.6,26.6,0,41,0s26,11.6,26,26l0,0c0,1.2,0.5,2.4,1.4,3.1
			C73.8,33.7,77,39.6,77,46z"/>
		<circle cx="52" cy="23" r="4"/>
		<circle cx="30" cy="23" r="4"/>
		<circle class="st3" cx="37" cy="48" r="2"/>
		<circle class="st3" cx="45" cy="48" r="2"/>
	</g>
</g>
</svg>
